<svg width="137" height="26" viewBox="0 0 137 26" fill="none" xmlns="http://www.w3.org/2000/svg">
<rect width="137" height="26" rx="8" fill="white"/>
<g opacity="0.8">
<path d="M14.7463 17H13.3423V8.99604H16.8703C18.5503 8.99604 19.4743 10.136 19.4743 11.504C19.4743 12.86 18.5383 14 16.8703 14H14.7463V17ZM16.6783 12.764C17.4703 12.764 18.0343 12.26 18.0343 11.504C18.0343 10.736 17.4703 10.232 16.6783 10.232H14.7463V12.764H16.6783Z" fill="#7B8AA7"/>
<path d="M22.0788 17H20.8188V11.204H22.0788V12.044C22.5228 11.492 23.2188 11.06 23.9628 11.06V12.308C23.8548 12.284 23.7348 12.272 23.5788 12.272C23.0388 12.272 22.3308 12.632 22.0788 13.052V17Z" fill="#7B8AA7"/>
<path d="M27.8069 17.144C25.9589 17.144 24.8309 15.752 24.8309 14.096C24.8309 12.428 25.9589 11.06 27.8069 11.06C29.6549 11.06 30.7829 12.428 30.7829 14.096C30.7829 15.752 29.6549 17.144 27.8069 17.144ZM27.8069 16.028C28.8869 16.028 29.4749 15.128 29.4749 14.096C29.4749 13.076 28.8869 12.176 27.8069 12.176C26.7389 12.176 26.1389 13.076 26.1389 14.096C26.1389 15.128 26.7389 16.028 27.8069 16.028Z" fill="#7B8AA7"/>
<path d="M35.1496 17H33.7936L31.4296 11.204H32.7856L34.4776 15.548L36.1696 11.204H37.5136L35.1496 17Z" fill="#7B8AA7"/>
<path d="M39.1407 10.496C38.7087 10.496 38.3607 10.148 38.3607 9.71604C38.3607 9.28404 38.7087 8.93604 39.1407 8.93604C39.5727 8.93604 39.9207 9.28404 39.9207 9.71604C39.9207 10.148 39.5727 10.496 39.1407 10.496ZM39.7647 17H38.5047V11.204H39.7647V17Z" fill="#7B8AA7"/>
<path d="M46.9393 17H45.6793V16.208C45.2353 16.784 44.5753 17.144 43.8193 17.144C42.3433 17.144 41.2513 16.016 41.2513 14.096C41.2513 12.224 42.3313 11.06 43.8193 11.06C44.5513 11.06 45.2233 11.384 45.6793 12.008V8.99604H46.9393V17ZM44.1913 16.028C44.7793 16.028 45.4033 15.68 45.6793 15.248V12.956C45.4033 12.524 44.7793 12.176 44.1913 12.176C43.1833 12.176 42.5473 12.98 42.5473 14.096C42.5473 15.224 43.1833 16.028 44.1913 16.028Z" fill="#7B8AA7"/>
<path d="M51.4599 17.144C49.7079 17.144 48.4239 15.932 48.4239 14.096C48.4239 12.416 49.6479 11.06 51.3639 11.06C53.1039 11.06 54.2079 12.38 54.2079 14.204V14.516H49.7439C49.8399 15.38 50.4879 16.112 51.5799 16.112C52.1559 16.112 52.8159 15.884 53.2359 15.464L53.8119 16.292C53.2239 16.844 52.3719 17.144 51.4599 17.144ZM52.9959 13.616C52.9599 12.932 52.4919 12.092 51.3519 12.092C50.2839 12.092 49.7799 12.92 49.7319 13.616H52.9959Z" fill="#7B8AA7"/>
<path d="M60.9916 17H59.7316V16.208C59.2876 16.784 58.6276 17.144 57.8716 17.144C56.3956 17.144 55.3036 16.016 55.3036 14.096C55.3036 12.224 56.3836 11.06 57.8716 11.06C58.6036 11.06 59.2756 11.384 59.7316 12.008V8.99604H60.9916V17ZM58.2436 16.028C58.8316 16.028 59.4556 15.68 59.7316 15.248V12.956C59.4556 12.524 58.8316 12.176 58.2436 12.176C57.2356 12.176 56.5996 12.98 56.5996 14.096C56.5996 15.224 57.2356 16.028 58.2436 16.028Z" fill="#7B8AA7"/>
<path d="M67.378 15.26C67.666 15.692 68.278 16.028 68.878 16.028C69.874 16.028 70.51 15.224 70.51 14.096C70.51 12.98 69.874 12.176 68.878 12.176C68.278 12.176 67.666 12.524 67.378 12.956V15.26ZM67.378 17H66.118V8.99604H67.378V12.008C67.846 11.384 68.518 11.06 69.238 11.06C70.738 11.06 71.818 12.224 71.818 14.096C71.818 16.016 70.726 17.144 69.238 17.144C68.494 17.144 67.822 16.784 67.378 16.208V17Z" fill="#7B8AA7"/>
<path d="M73.0507 19.268L73.2307 18.14C73.3627 18.2 73.5667 18.236 73.7107 18.236C74.1187 18.236 74.3827 18.116 74.5507 17.732L74.8387 17.072L72.4507 11.204H73.8067L75.4987 15.548L77.1907 11.204H78.5347L75.7387 18.044C75.3427 19.028 74.6587 19.34 73.7587 19.352C73.5787 19.352 73.2187 19.316 73.0507 19.268Z" fill="#7B8AA7"/>
</g>
<g clip-path="url(#clip0_23379_6806)">
<path d="M121.3 17.2424C119.478 17.2424 118.222 16.7227 117.311 15.9379L118.667 14.0924C119.311 14.6864 120.278 15.153 121.433 15.153C121.922 15.153 122.389 15.0257 122.389 14.7076C122.389 13.9227 117.6 14.7182 117.6 11.4833C117.6 10.0939 118.811 8.75757 121.167 8.75757C122.567 8.75757 123.833 9.13939 124.811 9.90302L123.422 11.6636C122.678 11.1227 121.711 10.847 120.9 10.847C120.389 10.847 120.244 11.0061 120.244 11.2182C120.244 11.9924 125.022 11.3242 125.022 14.3788C125 16.1924 123.6 17.2424 121.3 17.2424Z" fill="#2F394E"/>
<path d="M114.878 17.0939H112.278V11.0484H109.978V8.88477H117.166V11.0484H114.878V17.0939Z" fill="#2F394E"/>
<path d="M109.044 17.0939H106.444V13.9545H103.367V17.0939H100.778V8.88477H103.378V11.7908H106.456V8.88477H109.056V17.0939H109.044Z" fill="#2F394E"/>
<path d="M93.4444 6L85 10.6348V17.0303L93.4444 12.5545V6Z" fill="url(#paint0_linear_23379_6806)"/>
<path opacity="0.06" d="M85 10.6348L93.4444 6V6.22273L85.2222 10.7409V16.9136L85 17.0303V10.6348Z" fill="white"/>
<path d="M95.6666 7.48486L87.2222 12.1197V18.5152L95.6666 14.0394V7.48486Z" fill="url(#paint1_linear_23379_6806)"/>
<mask id="mask0_23379_6806" style="mask-type:alpha" maskUnits="userSpaceOnUse" x="87" y="7" width="9" height="12">
<path d="M95.6666 7.48486L87.2222 12.1197V18.5152L95.6666 14.0394V7.48486Z" fill="black"/>
</mask>
<g mask="url(#mask0_23379_6806)">
<path d="M93.4444 6L85 10.6348V17.0303L93.4444 12.5545V6Z" fill="url(#paint2_radial_23379_6806)"/>
</g>
<path opacity="0.12" d="M87.2222 12.1197L95.6666 7.48486V7.70759L87.4444 12.2258V18.3985L87.2222 18.5152V12.1197Z" fill="white"/>
<path d="M97.8888 8.96973L89.4443 13.6046V20L97.8888 15.5243V8.96973Z" fill="url(#paint3_linear_23379_6806)"/>
<mask id="mask1_23379_6806" style="mask-type:alpha" maskUnits="userSpaceOnUse" x="89" y="8" width="9" height="12">
<path d="M97.8888 8.96973L89.4443 13.6046V20L97.8888 15.5243V8.96973Z" fill="black"/>
</mask>
<g mask="url(#mask1_23379_6806)">
<path d="M95.6666 7.48486L87.2222 12.1197V18.5152L95.6666 14.0394V7.48486Z" fill="url(#paint4_radial_23379_6806)"/>
</g>
<mask id="mask2_23379_6806" style="mask-type:alpha" maskUnits="userSpaceOnUse" x="89" y="8" width="9" height="12">
<path d="M97.8888 8.96973L89.4443 13.6046V20L97.8888 15.5243V8.96973Z" fill="black"/>
</mask>
<g mask="url(#mask2_23379_6806)">
<path d="M93.4444 6L85 10.6348V17.0303L93.4444 12.5545V6Z" fill="url(#paint5_linear_23379_6806)" fill-opacity="0.06"/>
</g>
<path opacity="0.06" d="M89.4443 13.6046L97.8888 8.96973V9.19245L89.6666 13.7106V19.8834L89.4443 20V13.6046Z" fill="white"/>
</g>
<defs>
<linearGradient id="paint0_linear_23379_6806" x1="93.4916" y1="6.03297" x2="85.5377" y2="17.4063" gradientUnits="userSpaceOnUse">
<stop stop-color="#E04846"/>
<stop offset="1" stop-color="#FA6866"/>
</linearGradient>
<linearGradient id="paint1_linear_23379_6806" x1="95.7138" y1="7.51784" x2="87.7599" y2="18.8912" gradientUnits="userSpaceOnUse">
<stop stop-color="#F4D52F"/>
<stop offset="1" stop-color="#FAC624"/>
</linearGradient>
<radialGradient id="paint2_radial_23379_6806" cx="0" cy="0" r="1" gradientUnits="userSpaceOnUse" gradientTransform="translate(88.1678 10.9301) rotate(15.682) scale(4.90479 3.88408)">
<stop offset="0.224" stop-color="#FDCC28"/>
<stop offset="1" stop-color="#FEAF14"/>
</radialGradient>
<linearGradient id="paint3_linear_23379_6806" x1="97.9358" y1="9.00269" x2="89.9819" y2="20.3761" gradientUnits="userSpaceOnUse">
<stop stop-color="#01AAE4"/>
<stop offset="1" stop-color="#0D88AE"/>
</linearGradient>
<radialGradient id="paint4_radial_23379_6806" cx="0" cy="0" r="1" gradientUnits="userSpaceOnUse" gradientTransform="translate(94.4444 14.3276) rotate(-157.177) scale(5.60551 4.47313)">
<stop stop-color="#0AC9C9"/>
<stop offset="1" stop-color="#0BA5C3"/>
</radialGradient>
<linearGradient id="paint5_linear_23379_6806" x1="93.4916" y1="6.03297" x2="85.5377" y2="17.4063" gradientUnits="userSpaceOnUse">
<stop stop-color="#E04846"/>
<stop offset="1" stop-color="#FA6866"/>
</linearGradient>
<clipPath id="clip0_23379_6806">
<rect width="40" height="14" fill="white" transform="translate(85 6)"/>
</clipPath>
</defs>
</svg>
