<svg width="121" height="20" viewBox="0 0 121 20" fill="none" xmlns="http://www.w3.org/2000/svg">
<path fill-rule="evenodd" clip-rule="evenodd" d="M83.1392 9.69875C83.1392 7.97081 84.7001 6.52157 86.5956 6.52157C88.491 6.52157 90.052 7.97081 90.2749 9.64301C90.2749 11.3709 88.714 12.8202 86.7628 12.8202C85.7594 12.8202 84.8116 12.3743 84.1427 11.7054L84.0311 11.5939L83.9197 11.7054C83.3064 12.43 82.6375 12.8202 81.9685 12.8202C80.1425 12.8202 80.074 11.1728 80.0186 9.84017L80.0173 9.81023C80.0131 9.74764 80.0093 9.68568 80.0055 9.6246L80.0055 9.62448C79.9584 8.86964 79.9198 8.24951 79.4041 8.24951C78.4006 8.24951 77.2299 10.9808 76.6167 12.5972L76.5609 12.7087C76.5052 12.8202 76.1707 12.8759 75.9477 12.8759C75.7247 12.8759 75.446 12.8202 75.3902 12.7087V12.653C75.3345 12.3743 75 10.2004 75 5.07233C75 2.89848 75.1115 0.613139 75.223 0.390179C75.3345 0.2787 75.9477 0 76.115 0C76.3937 0 76.7282 0.22296 76.784 0.33444C76.8397 0.557399 76.8954 1.50498 76.8954 3.17718C76.8954 5.01659 76.8397 6.85601 76.7282 8.80691L76.6167 10.7021L76.8954 10.1447C77.6202 8.47247 78.7909 6.52157 80.2961 6.52157C81.5217 6.52157 81.5758 7.99865 81.6268 9.39478L81.634 9.58727C81.634 10.7578 81.634 11.7054 82.303 11.7054C82.6375 11.7054 82.9719 11.4267 83.3622 10.9808L83.418 10.925L83.3622 10.8693C83.2507 10.4791 83.1392 10.0889 83.1392 9.69875ZM85.0343 9.69861C85.0343 10.7577 85.7033 11.6495 86.5953 11.6495C87.4872 11.6495 88.212 10.7577 88.212 9.69861C88.212 8.63955 87.4872 7.74771 86.5953 7.74771C85.7591 7.74771 85.0343 8.63955 85.0343 9.69861ZM94.233 6.52165C93.564 6.52165 92.8393 6.74461 92.2818 7.13479L92.1146 7.24627L92.0589 7.07905C92.0031 6.85609 92.0031 6.68887 92.0031 6.68887C91.9473 6.57739 91.6129 6.52165 91.3899 6.52165C91.2226 6.52165 90.8882 6.57739 90.8324 6.68887C90.7766 6.91183 90.4979 9.42013 90.4979 13.9351V13.9908C90.5537 14.0465 90.5537 14.1023 90.5537 14.3252C90.6094 16.5548 90.7766 18.7287 90.8882 19.0074C90.9996 19.1189 91.6128 19.3976 91.7801 19.3976H91.8358C92.1703 19.3976 92.4491 19.1746 92.4491 19.0631C92.4491 19.054 92.4506 19.0404 92.4531 19.0176C92.4659 18.9013 92.5048 18.5468 92.5048 17.3352V16.2204C92.5048 15.8153 92.4898 15.4853 92.4754 15.168V15.1679V15.1679V15.1679V15.1678V15.1678V15.1678V15.1677V15.1677V15.1677V15.1677C92.462 14.8739 92.4491 14.591 92.4491 14.2695C92.4167 14.0103 92.4031 13.7322 92.3865 13.3915C92.3745 13.1462 92.3609 12.8683 92.3376 12.5416V12.3743L92.5048 12.4858C93.0623 12.7645 93.6198 12.9317 94.1773 12.9317C96.1284 12.9317 97.6894 11.4825 97.6894 9.75457C97.7451 7.97089 96.1842 6.52165 94.233 6.52165ZM92.2819 9.69861C92.2819 10.6462 92.7836 11.6495 94.233 11.6495C95.125 11.6495 95.8497 10.7577 95.8497 9.69861C95.8497 8.63955 95.125 7.74771 94.233 7.74771C93.0066 7.74771 92.2819 8.52807 92.2819 9.69861ZM101.926 6.52165C101.257 6.52165 100.533 6.74461 99.9753 7.13479L99.808 7.24627L99.7523 7.07905C99.6965 6.85609 99.6965 6.68887 99.6965 6.68887C99.6408 6.57739 99.3063 6.52165 99.0834 6.52165C98.9161 6.52165 98.5816 6.57739 98.5258 6.68887C98.4701 6.91183 98.1913 9.42013 98.1913 13.9351V13.9908C98.2471 14.0465 98.2471 14.1023 98.2471 14.3252C98.3029 16.5548 98.4701 18.7287 98.5816 19.0074C98.6931 19.1189 99.3063 19.3976 99.4736 19.3976H99.5293C99.8638 19.3976 100.143 19.1746 100.143 19.0631C100.143 19.054 100.144 19.0405 100.146 19.0178L100.147 19.0176L100.147 19.0176C100.159 18.9013 100.198 18.5468 100.198 17.3352V16.2204C100.198 15.8152 100.183 15.4852 100.169 15.1679V15.1679V15.1678V15.1678V15.1678V15.1677V15.1677C100.155 14.8739 100.143 14.591 100.143 14.2695C100.111 14.0162 100.097 13.7448 100.081 13.4248V13.4248V13.4248V13.4248C100.069 13.1816 100.055 12.9102 100.031 12.5973V12.4301L100.198 12.5416C100.756 12.8203 101.313 12.9875 101.871 12.9875C103.822 12.9875 105.383 11.5382 105.383 9.81031C105.438 7.97089 103.878 6.52165 101.926 6.52165ZM99.9752 9.69861C99.9752 10.6462 100.477 11.6495 101.926 11.6495C102.819 11.6495 103.543 10.7577 103.543 9.69861C103.543 8.63955 102.819 7.74771 101.926 7.74771C100.7 7.74771 99.9752 8.52807 99.9752 9.69861ZM119.933 8.91837C119.933 8.91837 119.877 8.97411 119.877 9.02985C119.375 10.0332 118.316 11.7054 117.535 11.7054C117.312 11.7054 117.201 11.5381 117.201 11.3152C117.201 11.0365 117.424 10.4791 117.703 9.86595C117.767 9.68986 117.84 9.50917 117.912 9.3318C118.09 8.8916 118.261 8.47187 118.261 8.19375C118.261 7.52487 117.814 7.19043 117.034 7.19043C116.978 7.19043 115.306 7.19043 114.804 6.85599L114.748 6.80025V6.74451C114.748 6.35433 114.637 5.35101 113.8 5.35101C113.354 5.35101 113.076 6.01989 113.076 6.35433C113.076 7.24617 113.522 7.63635 113.745 7.74783L113.8 7.80357L113.856 7.85931L113.8 7.91505C113.635 8.53421 113.317 9.09224 113.073 9.52123C112.987 9.67153 112.911 9.80599 112.853 9.92169C112.072 11.0365 111.125 11.5381 109.842 11.5381C108.895 11.5381 108.17 11.0365 107.947 10.2004L107.891 9.97743L108.059 10.0332C108.56 10.2004 109.006 10.2561 109.452 10.2561C110.679 10.2561 111.961 9.64299 111.961 8.30523C111.961 7.19043 110.902 6.35433 109.452 6.35433C107.557 6.35433 105.996 7.80357 105.996 9.53151C105.996 10.8135 106.999 12.7087 109.786 12.7087C112.017 12.7087 113.131 10.702 113.466 10.0889L113.522 10.0332C113.912 9.36429 114.247 8.52819 114.358 8.19375L114.414 8.08227L114.525 8.13801C114.693 8.19375 115.473 8.36097 115.975 8.36097C116.198 8.36097 116.365 8.47245 116.365 8.69541C116.365 8.72328 116.351 8.75115 116.337 8.77902C116.323 8.80689 116.309 8.83476 116.309 8.86263L116.253 8.91837L116.142 9.08559C115.863 9.69873 115.473 10.5906 115.473 11.2037C115.473 11.9841 115.975 12.7644 117.09 12.7644C118.559 12.7644 119.485 11.0356 119.868 10.3214L119.868 10.3212C119.892 10.2768 119.913 10.2363 119.933 10.2004L119.989 10.1446C120.044 9.97743 120.1 9.75447 120.1 9.47577C120.086 9.42003 120.072 9.35732 120.058 9.29461C120.016 9.10649 119.975 8.91837 119.933 8.91837ZM109.452 7.74771C108.728 7.74771 108.003 8.52807 107.891 9.47565L107.836 9.53139L107.947 9.58713C108.114 9.64287 108.393 9.69861 108.728 9.69861C109.564 9.69861 110.567 9.41991 110.567 8.69529C110.567 8.08215 110.121 7.74771 109.452 7.74771Z" fill="#505050"/>
<path d="M1.02539 13H2.79492V10.334H4.51172C6.29297 10.334 7.48242 9.18555 7.48242 7.44531V7.43359C7.48242 5.69336 6.29297 4.54492 4.51172 4.54492H1.02539V13ZM4.07812 5.94531C5.0918 5.94531 5.68945 6.47852 5.68945 7.43945V7.45117C5.68945 8.41211 5.0918 8.95117 4.07812 8.95117H2.79492V5.94531H4.07812ZM8.94141 13H10.6523V9.39062C10.6523 8.47656 11.2676 7.91992 12.2402 7.91992C12.5039 7.91992 12.7676 7.96094 13.0254 8.01953V6.52539C12.8555 6.47852 12.6152 6.44336 12.3867 6.44336C11.5488 6.44336 10.9629 6.85352 10.7578 7.55078H10.6523V6.54883H8.94141V13ZM16.8809 13.1348C18.8672 13.1348 20.0625 11.8809 20.0625 9.77734V9.76562C20.0625 7.67969 18.8496 6.4082 16.8809 6.4082C14.9121 6.4082 13.6992 7.68555 13.6992 9.76562V9.77734C13.6992 11.875 14.8945 13.1348 16.8809 13.1348ZM16.8809 11.793C15.9668 11.793 15.4512 11.0488 15.4512 9.77734V9.76562C15.4512 8.50586 15.9727 7.75 16.8809 7.75C17.7832 7.75 18.3105 8.50586 18.3105 9.76562V9.77734C18.3105 11.0488 17.7891 11.793 16.8809 11.793ZM22.875 13H24.7969L27.0293 6.54883H25.2305L23.9062 11.4004H23.8008L22.4648 6.54883H20.6309L22.875 13ZM29.0566 5.55859C29.584 5.55859 30.0176 5.13672 30.0176 4.60938C30.0176 4.07617 29.584 3.6543 29.0566 3.6543C28.5293 3.6543 28.0898 4.07617 28.0898 4.60938C28.0898 5.13672 28.5293 5.55859 29.0566 5.55859ZM28.1953 13H29.9062V6.54883H28.1953V13ZM33.9316 13.0996C34.8398 13.0996 35.5254 12.6953 35.8594 11.998H35.9648V13H37.6758V4.08203H35.9648V7.58008H35.8594C35.5371 6.87695 34.8164 6.44336 33.9316 6.44336C32.2969 6.44336 31.3125 7.69141 31.3125 9.76562V9.77734C31.3125 11.8398 32.3203 13.0996 33.9316 13.0996ZM34.5117 11.6816C33.6094 11.6816 33.0527 10.9668 33.0527 9.77734V9.76562C33.0527 8.58789 33.6094 7.86133 34.5117 7.86133C35.4141 7.86133 35.9824 8.58789 35.9824 9.77148V9.7832C35.9824 10.9668 35.4199 11.6816 34.5117 11.6816ZM42.2812 13.1348C44.168 13.1348 45 12.0449 45.1992 11.2363L45.2109 11.1777H43.6172L43.5996 11.2129C43.4824 11.459 43.0664 11.8574 42.3164 11.8574C41.4082 11.8574 40.8398 11.2422 40.8223 10.1816H45.2637V9.64844C45.2637 7.69727 44.0918 6.4082 42.2109 6.4082C40.3301 6.4082 39.1289 7.72656 39.1289 9.77734V9.7832C39.1289 11.8516 40.3184 13.1348 42.2812 13.1348ZM42.2402 7.69141C42.9844 7.69141 43.5176 8.17188 43.623 9.10938H40.8398C40.9453 8.19531 41.4961 7.69141 42.2402 7.69141ZM48.9668 13.0996C49.875 13.0996 50.5605 12.6953 50.8945 11.998H51V13H52.7109V4.08203H51V7.58008H50.8945C50.5723 6.87695 49.8516 6.44336 48.9668 6.44336C47.332 6.44336 46.3477 7.69141 46.3477 9.76562V9.77734C46.3477 11.8398 47.3555 13.0996 48.9668 13.0996ZM49.5469 11.6816C48.6445 11.6816 48.0879 10.9668 48.0879 9.77734V9.76562C48.0879 8.58789 48.6445 7.86133 49.5469 7.86133C50.4492 7.86133 51.0176 8.58789 51.0176 9.77148V9.7832C51.0176 10.9668 50.4551 11.6816 49.5469 11.6816ZM61.3828 13.0996C62.9941 13.0996 64.002 11.8398 64.002 9.77734V9.76562C64.002 7.69141 63.0176 6.44336 61.3828 6.44336C60.498 6.44336 59.7773 6.87695 59.4492 7.58008H59.3438V4.08203H57.6328V13H59.3438V11.998H59.4492C59.7832 12.6953 60.4688 13.0996 61.3828 13.0996ZM60.7969 11.6816C59.8945 11.6816 59.3262 10.9668 59.3262 9.7832V9.77148C59.3262 8.58789 59.9004 7.86133 60.7969 7.86133C61.6992 7.86133 62.2617 8.58789 62.2617 9.76562V9.77734C62.2617 10.9668 61.7051 11.6816 60.7969 11.6816ZM65.8887 15.2734C67.4824 15.2734 68.332 14.6992 68.9062 12.9941L71.1035 6.54883H69.2988L67.9453 11.4355H67.8281L66.4746 6.54883H64.5938L66.8613 13L66.8027 13.2461C66.6797 13.75 66.3281 13.9844 65.7188 13.9844C65.5605 13.9844 65.3906 13.9785 65.2734 13.9668V15.2559C65.4727 15.2676 65.6895 15.2734 65.8887 15.2734Z" fill="#505050"/>
</svg>
