<svg width="127" height="26" viewBox="0 0 127 26" fill="none" xmlns="http://www.w3.org/2000/svg">
<rect width="127" height="26" rx="8" fill="white"/>
<path opacity="0.8" d="M14.3638 17H12.9598V8.996H18.4438V10.232H14.3638V12.296H18.3598V13.532H14.3638V17ZM22.5135 17.144C20.6655 17.144 19.5375 15.752 19.5375 14.096C19.5375 12.428 20.6655 11.06 22.5135 11.06C24.3615 11.06 25.4895 12.428 25.4895 14.096C25.4895 15.752 24.3615 17.144 22.5135 17.144ZM22.5135 16.028C23.5935 16.028 24.1815 15.128 24.1815 14.096C24.1815 13.076 23.5935 12.176 22.5135 12.176C21.4455 12.176 20.8455 13.076 20.8455 14.096C20.8455 15.128 21.4455 16.028 22.5135 16.028ZM32.1482 17H30.8882V16.232C30.4802 16.688 29.7602 17.144 28.8482 17.144C27.6002 17.144 26.9762 16.484 26.9762 15.308V11.204H28.2362V14.84C28.2362 15.74 28.6922 16.028 29.4122 16.028C30.0482 16.028 30.6002 15.656 30.8882 15.272V11.204H32.1482V17ZM35.2448 17H33.9848V11.204H35.2448V12.044C35.6888 11.492 36.3848 11.06 37.1288 11.06V12.308C37.0208 12.284 36.9008 12.272 36.7448 12.272C36.2048 12.272 35.4968 12.632 35.2448 13.052V17ZM43.5289 17H42.2689V13.376C42.2689 12.464 41.8009 12.176 41.0929 12.176C40.4569 12.176 39.9049 12.56 39.6049 12.944V17H38.3449V11.204H39.6049V11.984C39.9889 11.528 40.7449 11.06 41.6569 11.06C42.9049 11.06 43.5289 11.732 43.5289 12.92V17ZM46.0012 10.496C45.5692 10.496 45.2212 10.148 45.2212 9.716C45.2212 9.284 45.5692 8.936 46.0012 8.936C46.4332 8.936 46.7812 9.284 46.7812 9.716C46.7812 10.148 46.4332 10.496 46.0012 10.496ZM46.6252 17H45.3652V11.204H46.6252V17ZM54.8735 17.144C54.1415 17.144 53.4935 16.808 53.0135 16.196V19.208H51.7535V11.204H53.0135V11.996C53.4455 11.42 54.1175 11.06 54.8735 11.06C56.3735 11.06 57.4415 12.188 57.4415 14.096C57.4415 16.004 56.3735 17.144 54.8735 17.144ZM54.5015 16.028C55.4975 16.028 56.1455 15.224 56.1455 14.096C56.1455 12.968 55.4975 12.176 54.5015 12.176C53.9135 12.176 53.3015 12.512 53.0135 12.944V15.236C53.2895 15.668 53.9135 16.028 54.5015 16.028ZM63.7147 17H62.4547V16.364C62.0227 16.868 61.3387 17.144 60.5707 17.144C59.6347 17.144 58.5667 16.496 58.5667 15.224C58.5667 13.88 59.6227 13.328 60.5707 13.328C61.3627 13.328 62.0227 13.58 62.4547 14.072V13.208C62.4547 12.536 61.8907 12.128 61.0987 12.128C60.4507 12.128 59.8747 12.368 59.3827 12.872L58.8547 11.996C59.5267 11.348 60.3667 11.06 61.2907 11.06C62.5867 11.06 63.7147 11.6 63.7147 13.148V17ZM61.0747 16.28C61.6147 16.28 62.1547 16.076 62.4547 15.68V14.792C62.1547 14.396 61.6147 14.192 61.0747 14.192C60.3667 14.192 59.8267 14.612 59.8267 15.236C59.8267 15.872 60.3667 16.28 61.0747 16.28ZM66.808 17H65.548V11.204H66.808V12.044C67.252 11.492 67.948 11.06 68.692 11.06V12.308C68.584 12.284 68.464 12.272 68.308 12.272C67.768 12.272 67.06 12.632 66.808 13.052V17Z" fill="#7B8AA7"/>
<g clip-path="url(#clip0_367_2970)">
<path d="M111.3 17.2424C109.478 17.2424 108.222 16.7227 107.311 15.9379L108.667 14.0924C109.311 14.6864 110.278 15.153 111.433 15.153C111.922 15.153 112.389 15.0257 112.389 14.7076C112.389 13.9227 107.6 14.7182 107.6 11.4833C107.6 10.0939 108.811 8.75757 111.167 8.75757C112.567 8.75757 113.833 9.13939 114.811 9.90302L113.422 11.6636C112.678 11.1227 111.711 10.847 110.9 10.847C110.389 10.847 110.244 11.0061 110.244 11.2182C110.244 11.9924 115.022 11.3242 115.022 14.3788C115 16.1924 113.6 17.2424 111.3 17.2424Z" fill="#2F394E"/>
<path d="M104.878 17.0939H102.278V11.0484H99.9775V8.88477H107.166V11.0484H104.878V17.0939Z" fill="#2F394E"/>
<path d="M99.0445 17.0939H96.4445V13.9545H93.3667V17.0939H90.7778V8.88477H93.3778V11.7908H96.4556V8.88477H99.0556V17.0939H99.0445Z" fill="#2F394E"/>
<path d="M83.4444 6L75 10.6348V17.0303L83.4444 12.5545V6Z" fill="url(#paint0_linear_367_2970)"/>
<path opacity="0.06" d="M75 10.6348L83.4444 6V6.22273L75.2222 10.7409V16.9136L75 17.0303V10.6348Z" fill="white"/>
<path d="M85.6666 7.48486L77.2222 12.1197V18.5152L85.6666 14.0394V7.48486Z" fill="url(#paint1_linear_367_2970)"/>
<mask id="mask0_367_2970" style="mask-type:alpha" maskUnits="userSpaceOnUse" x="77" y="7" width="9" height="12">
<path d="M85.6666 7.48486L77.2222 12.1197V18.5152L85.6666 14.0394V7.48486Z" fill="black"/>
</mask>
<g mask="url(#mask0_367_2970)">
<path d="M83.4444 6L74.9999 10.6348V17.0303L83.4444 12.5545V6Z" fill="url(#paint2_radial_367_2970)"/>
</g>
<path opacity="0.12" d="M77.2222 12.1197L85.6666 7.48486V7.70759L77.4444 12.2258V18.3985L77.2222 18.5152V12.1197Z" fill="white"/>
<path d="M87.8888 8.96973L79.4443 13.6046V20L87.8888 15.5243V8.96973Z" fill="url(#paint3_linear_367_2970)"/>
<mask id="mask1_367_2970" style="mask-type:alpha" maskUnits="userSpaceOnUse" x="79" y="8" width="9" height="12">
<path d="M87.8888 8.96973L79.4443 13.6046V20L87.8888 15.5243V8.96973Z" fill="black"/>
</mask>
<g mask="url(#mask1_367_2970)">
<path d="M85.6666 7.48486L77.2221 12.1197V18.5152L85.6666 14.0394V7.48486Z" fill="url(#paint4_radial_367_2970)"/>
</g>
<mask id="mask2_367_2970" style="mask-type:alpha" maskUnits="userSpaceOnUse" x="79" y="8" width="9" height="12">
<path d="M87.8888 8.96973L79.4443 13.6046V20L87.8888 15.5243V8.96973Z" fill="black"/>
</mask>
<g mask="url(#mask2_367_2970)">
<path d="M83.4443 6L74.9999 10.6348V17.0303L83.4443 12.5545V6Z" fill="url(#paint5_linear_367_2970)" fill-opacity="0.06"/>
</g>
<path opacity="0.06" d="M79.4443 13.6046L87.8888 8.96973V9.19245L79.6666 13.7106V19.8834L79.4443 20V13.6046Z" fill="white"/>
</g>
<defs>
<linearGradient id="paint0_linear_367_2970" x1="83.4916" y1="6.03297" x2="75.5377" y2="17.4063" gradientUnits="userSpaceOnUse">
<stop stop-color="#E04846"/>
<stop offset="1" stop-color="#FA6866"/>
</linearGradient>
<linearGradient id="paint1_linear_367_2970" x1="85.7138" y1="7.51784" x2="77.7599" y2="18.8912" gradientUnits="userSpaceOnUse">
<stop stop-color="#F4D52F"/>
<stop offset="1" stop-color="#FAC624"/>
</linearGradient>
<radialGradient id="paint2_radial_367_2970" cx="0" cy="0" r="1" gradientUnits="userSpaceOnUse" gradientTransform="translate(78.1678 10.9301) rotate(15.682) scale(4.90479 3.88408)">
<stop offset="0.224" stop-color="#FDCC28"/>
<stop offset="1" stop-color="#FEAF14"/>
</radialGradient>
<linearGradient id="paint3_linear_367_2970" x1="87.9358" y1="9.00269" x2="79.9819" y2="20.3761" gradientUnits="userSpaceOnUse">
<stop stop-color="#01AAE4"/>
<stop offset="1" stop-color="#0D88AE"/>
</linearGradient>
<radialGradient id="paint4_radial_367_2970" cx="0" cy="0" r="1" gradientUnits="userSpaceOnUse" gradientTransform="translate(84.4443 14.3276) rotate(-157.177) scale(5.60551 4.47313)">
<stop stop-color="#0AC9C9"/>
<stop offset="1" stop-color="#0BA5C3"/>
</radialGradient>
<linearGradient id="paint5_linear_367_2970" x1="83.4915" y1="6.03297" x2="75.5376" y2="17.4063" gradientUnits="userSpaceOnUse">
<stop stop-color="#E04846"/>
<stop offset="1" stop-color="#FA6866"/>
</linearGradient>
<clipPath id="clip0_367_2970">
<rect width="40" height="14" fill="white" transform="translate(75 6)"/>
</clipPath>
</defs>
</svg>
