<svg width="87" height="20" viewBox="0 0 87 20" fill="none" xmlns="http://www.w3.org/2000/svg">
<path fill-rule="evenodd" clip-rule="evenodd" d="M22.1392 9.69875C22.1392 7.97081 23.7001 6.52157 25.5956 6.52157C27.491 6.52157 29.052 7.97081 29.2749 9.64301C29.2749 11.3709 27.714 12.8202 25.7628 12.8202C24.7594 12.8202 23.8116 12.3743 23.1427 11.7054L23.0311 11.5939L22.9197 11.7054C22.3064 12.43 21.6375 12.8202 20.9685 12.8202C19.1425 12.8202 19.074 11.1728 19.0186 9.84017L19.0173 9.81023C19.0131 9.74764 19.0093 9.68568 19.0055 9.6246L19.0055 9.62448C18.9584 8.86964 18.9198 8.24951 18.4041 8.24951C17.4006 8.24951 16.2299 10.9808 15.6167 12.5972L15.5609 12.7087C15.5052 12.8202 15.1707 12.8759 14.9477 12.8759C14.7247 12.8759 14.446 12.8202 14.3902 12.7087V12.653C14.3345 12.3743 14 10.2004 14 5.07233C14 2.89848 14.1115 0.613139 14.223 0.390179C14.3345 0.2787 14.9477 0 15.115 0C15.3937 0 15.7282 0.22296 15.784 0.33444C15.8397 0.557399 15.8954 1.50498 15.8954 3.17718C15.8954 5.01659 15.8397 6.85601 15.7282 8.80691L15.6167 10.7021L15.8954 10.1447C16.6202 8.47247 17.7909 6.52157 19.2961 6.52157C20.5217 6.52157 20.5758 7.99865 20.6268 9.39478L20.634 9.58727C20.634 10.7578 20.634 11.7054 21.303 11.7054C21.6375 11.7054 21.9719 11.4267 22.3622 10.9808L22.418 10.925L22.3622 10.8693C22.2507 10.4791 22.1392 10.0889 22.1392 9.69875ZM24.0343 9.69861C24.0343 10.7577 24.7033 11.6495 25.5953 11.6495C26.4872 11.6495 27.212 10.7577 27.212 9.69861C27.212 8.63955 26.4872 7.74771 25.5953 7.74771C24.7591 7.74771 24.0343 8.63955 24.0343 9.69861ZM33.233 6.52165C32.564 6.52165 31.8393 6.74461 31.2818 7.13479L31.1146 7.24627L31.0589 7.07905C31.0031 6.85609 31.0031 6.68887 31.0031 6.68887C30.9473 6.57739 30.6129 6.52165 30.3899 6.52165C30.2226 6.52165 29.8882 6.57739 29.8324 6.68887C29.7766 6.91183 29.4979 9.42013 29.4979 13.9351V13.9908C29.5537 14.0465 29.5537 14.1023 29.5537 14.3252C29.6094 16.5548 29.7766 18.7287 29.8882 19.0074C29.9996 19.1189 30.6128 19.3976 30.7801 19.3976H30.8358C31.1703 19.3976 31.4491 19.1746 31.4491 19.0631C31.4491 19.054 31.4506 19.0404 31.4531 19.0176C31.4659 18.9013 31.5048 18.5468 31.5048 17.3352V16.2204C31.5048 15.8153 31.4898 15.4853 31.4754 15.168V15.1679V15.1679V15.1679V15.1678V15.1678V15.1678V15.1677V15.1677V15.1677V15.1677C31.462 14.8739 31.4491 14.591 31.4491 14.2695C31.4167 14.0103 31.4031 13.7322 31.3865 13.3915C31.3745 13.1462 31.3609 12.8683 31.3376 12.5416V12.3743L31.5048 12.4858C32.0623 12.7645 32.6198 12.9317 33.1773 12.9317C35.1284 12.9317 36.6894 11.4825 36.6894 9.75457C36.7451 7.97089 35.1842 6.52165 33.233 6.52165ZM31.2819 9.69861C31.2819 10.6462 31.7836 11.6495 33.233 11.6495C34.125 11.6495 34.8497 10.7577 34.8497 9.69861C34.8497 8.63955 34.125 7.74771 33.233 7.74771C32.0066 7.74771 31.2819 8.52807 31.2819 9.69861ZM40.9265 6.52165C40.2575 6.52165 39.5328 6.74461 38.9753 7.13479L38.808 7.24627L38.7523 7.07905C38.6965 6.85609 38.6965 6.68887 38.6965 6.68887C38.6408 6.57739 38.3063 6.52165 38.0834 6.52165C37.9161 6.52165 37.5816 6.57739 37.5258 6.68887C37.4701 6.91183 37.1913 9.42013 37.1913 13.9351V13.9908C37.2471 14.0465 37.2471 14.1023 37.2471 14.3252C37.3029 16.5548 37.4701 18.7287 37.5816 19.0074C37.6931 19.1189 38.3063 19.3976 38.4736 19.3976H38.5293C38.8638 19.3976 39.1425 19.1746 39.1425 19.0631C39.1425 19.054 39.144 19.0405 39.1465 19.0178L39.1465 19.0176L39.1465 19.0176C39.1593 18.9013 39.1983 18.5468 39.1983 17.3352V16.2204C39.1983 15.8152 39.1832 15.4852 39.1688 15.1679V15.1679V15.1678V15.1678V15.1678V15.1677V15.1677C39.1554 14.8739 39.1425 14.591 39.1425 14.2695C39.1109 14.0162 39.0972 13.7448 39.081 13.4248V13.4248V13.4248V13.4248C39.0688 13.1816 39.0551 12.9102 39.031 12.5973V12.4301L39.1983 12.5416C39.7558 12.8203 40.3132 12.9875 40.8707 12.9875C42.822 12.9875 44.3827 11.5382 44.3827 9.81031C44.4384 7.97089 42.8777 6.52165 40.9265 6.52165ZM38.9752 9.69861C38.9752 10.6462 39.4769 11.6495 40.9263 11.6495C41.8185 11.6495 42.5431 10.7577 42.5431 9.69861C42.5431 8.63955 41.8185 7.74771 40.9263 7.74771C39.6999 7.74771 38.9752 8.52807 38.9752 9.69861ZM58.9328 8.91837C58.9328 8.91837 58.8771 8.97411 58.8771 9.02985C58.3754 10.0332 57.3164 11.7054 56.5354 11.7054C56.3125 11.7054 56.201 11.5381 56.201 11.3152C56.201 11.0365 56.424 10.4791 56.7027 9.86595C56.7667 9.68986 56.84 9.50917 56.9119 9.3318C57.0904 8.8916 57.2606 8.47187 57.2606 8.19375C57.2606 7.52487 56.8141 7.19043 56.0338 7.19043C55.978 7.19043 54.3058 7.19043 53.8042 6.85599L53.7484 6.80025V6.74451C53.7484 6.35433 53.637 5.35101 52.8003 5.35101C52.3544 5.35101 52.0757 6.01989 52.0757 6.35433C52.0757 7.24617 52.5216 7.63635 52.7446 7.74783L52.8003 7.80357L52.856 7.85931L52.8003 7.91505C52.6352 8.53421 52.3173 9.09224 52.0728 9.52123C51.9872 9.67153 51.9106 9.80599 51.8527 9.92169C51.0724 11.0365 50.1248 11.5381 48.8422 11.5381C47.8946 11.5381 47.17 11.0365 46.9471 10.2004L46.8913 9.97743L47.0585 10.0332C47.5602 10.2004 48.0061 10.2561 48.452 10.2561C49.6789 10.2561 50.9609 9.64299 50.9609 8.30523C50.9609 7.19043 49.9018 6.35433 48.452 6.35433C46.5569 6.35433 44.9956 7.80357 44.9956 9.53151C44.9956 10.8135 45.9995 12.7087 48.7865 12.7087C51.0166 12.7087 52.1314 10.702 52.4659 10.0889L52.5216 10.0332C52.9118 9.36429 53.2468 8.52819 53.3583 8.19375L53.414 8.08227L53.5255 8.13801C53.6927 8.19375 54.4731 8.36097 54.9747 8.36097C55.1977 8.36097 55.3649 8.47245 55.3649 8.69541C55.3649 8.72328 55.351 8.75115 55.337 8.77902C55.3231 8.80689 55.3092 8.83476 55.3092 8.86263L55.2534 8.91837L55.1419 9.08559C54.8632 9.69873 54.4731 10.5906 54.4731 11.2037C54.4731 11.9841 54.9747 12.7644 56.0895 12.7644C57.5592 12.7644 58.4851 11.0356 58.8677 10.3214L58.8678 10.3212C58.8916 10.2768 58.9132 10.2363 58.9328 10.2004L58.9886 10.1446C59.0443 9.97743 59.1 9.75447 59.1 9.47577C59.0861 9.42003 59.0722 9.35732 59.0582 9.29461C59.0164 9.10649 58.9746 8.91837 58.9328 8.91837ZM48.4521 7.74771C47.7275 7.74771 47.0029 8.52807 46.8914 9.47565L46.8357 9.53139L46.9471 9.58713C47.1144 9.64287 47.3931 9.69861 47.7275 9.69861C48.5636 9.69861 49.5675 9.41991 49.5675 8.69529C49.5675 8.08215 49.121 7.74771 48.4521 7.74771Z" fill="#505050"/>
<path d="M1.92 8.56V9.976H10.02V8.56H1.92ZM1.92 12.016V13.444H10.008V12.016H1.92ZM1.2 5.092V14.092H2.64V6.544H9.324V14.068H10.836V5.092H1.2ZM5.196 2.824V12.772H6.672V2.824H5.196Z" fill="#505050"/>
<path d="M67.204 5.728H70.456V6.316H67.204V5.728ZM67.204 4.204H70.456V4.804H67.204V4.204ZM65.884 3.184V7.348H71.836V3.184H65.884ZM65.296 7.9V9.064H72.448V7.9H65.296ZM68.14 8.536V12.832L69.496 13.42V8.536H68.14ZM67.036 10.66L66.172 10.948C66.94 13.492 68.332 13.924 70.276 13.924H72.376C72.424 13.552 72.592 12.952 72.772 12.652C72.244 12.676 70.744 12.676 70.336 12.676C68.86 12.676 67.636 12.448 67.036 10.66ZM69.124 10.12V11.248H71.8V10.12H69.124ZM66.016 9.424C65.836 11.068 65.332 12.4 64.336 13.204C64.636 13.396 65.176 13.828 65.392 14.056C66.448 13.084 67.06 11.536 67.312 9.58L66.016 9.424ZM61.264 8.896L61.576 10.288C62.656 9.988 64.012 9.592 65.272 9.208L65.08 7.912C63.7 8.296 62.248 8.692 61.264 8.896ZM61.384 5.092V6.412H65.2V5.092H61.384ZM62.68 2.824V12.388C62.68 12.556 62.632 12.604 62.488 12.604C62.344 12.604 61.924 12.604 61.492 12.592C61.66 12.976 61.828 13.564 61.864 13.924C62.632 13.924 63.16 13.876 63.52 13.648C63.892 13.432 64 13.06 64 12.4V2.824H62.68ZM75.904 2.824C75.292 4.54 74.248 6.256 73.168 7.336C73.408 7.696 73.804 8.488 73.936 8.836C75.244 7.456 76.492 5.296 77.26 3.256L75.904 2.824ZM74.692 6.172V14.068H76.108V4.78V4.768L74.692 6.172ZM77.08 5.152V6.532H84.508V5.152H77.08ZM76.792 8.932V10.336H84.616V8.932H76.792ZM78.412 2.908V9.652H79.816V2.908H78.412ZM81.544 2.884V9.676H82.96V2.884H81.544ZM78.724 10.816C78.232 11.68 77.392 12.568 76.54 13.132C76.864 13.324 77.404 13.78 77.668 14.032C78.508 13.36 79.48 12.292 80.08 11.248L78.724 10.816ZM81.364 11.452C82.108 12.244 82.96 13.336 83.332 14.056L84.544 13.3C84.124 12.592 83.284 11.572 82.504 10.816L81.364 11.452Z" fill="#505050"/>
</svg>
