<svg width="150" height="28" viewBox="0 0 150 28" fill="none" xmlns="http://www.w3.org/2000/svg">
<rect width="150" height="28" rx="14" fill="white"/>
<path fill-rule="evenodd" clip-rule="evenodd" d="M98.1392 13.6987C98.1392 11.9708 99.7001 10.5216 101.596 10.5216C103.491 10.5216 105.052 11.9708 105.275 13.643C105.275 15.3709 103.714 16.8202 101.763 16.8202C100.759 16.8202 99.8116 16.3743 99.1427 15.7054L99.0311 15.5939L98.9197 15.7054C98.3064 16.43 97.6375 16.8202 96.9685 16.8202C95.1425 16.8202 95.074 15.1728 95.0186 13.8402L95.0173 13.8102C95.0131 13.7476 95.0093 13.6857 95.0055 13.6246L95.0055 13.6245C94.9584 12.8696 94.9198 12.2495 94.4041 12.2495C93.4006 12.2495 92.2299 14.9808 91.6167 16.5972L91.5609 16.7087C91.5052 16.8202 91.1707 16.8759 90.9477 16.8759C90.7247 16.8759 90.446 16.8202 90.3902 16.7087V16.653C90.3345 16.3743 90 14.2004 90 9.07233C90 6.89848 90.1115 4.61314 90.223 4.39018C90.3345 4.2787 90.9477 4 91.115 4C91.3937 4 91.7282 4.22296 91.784 4.33444C91.8397 4.5574 91.8954 5.50498 91.8954 7.17718C91.8954 9.01659 91.8397 10.856 91.7282 12.8069L91.6167 14.7021L91.8954 14.1447C92.6202 12.4725 93.7909 10.5216 95.2961 10.5216C96.5217 10.5216 96.5758 11.9987 96.6268 13.3948L96.634 13.5873C96.634 14.7578 96.634 15.7054 97.303 15.7054C97.6375 15.7054 97.9719 15.4267 98.3622 14.9808L98.418 14.925L98.3622 14.8693C98.2507 14.4791 98.1392 14.0889 98.1392 13.6987ZM100.034 13.6986C100.034 14.7577 100.703 15.6495 101.595 15.6495C102.487 15.6495 103.212 14.7577 103.212 13.6986C103.212 12.6396 102.487 11.7477 101.595 11.7477C100.759 11.7477 100.034 12.6396 100.034 13.6986ZM109.233 10.5217C108.564 10.5217 107.839 10.7446 107.282 11.1348L107.115 11.2463L107.059 11.0791C107.003 10.8561 107.003 10.6889 107.003 10.6889C106.947 10.5774 106.613 10.5217 106.39 10.5217C106.223 10.5217 105.888 10.5774 105.832 10.6889C105.777 10.9118 105.498 13.4201 105.498 17.9351V17.9908C105.554 18.0465 105.554 18.1023 105.554 18.3252C105.609 20.5548 105.777 22.7287 105.888 23.0074C106 23.1189 106.613 23.3976 106.78 23.3976H106.836C107.17 23.3976 107.449 23.1746 107.449 23.0631C107.449 23.054 107.451 23.0404 107.453 23.0176C107.466 22.9013 107.505 22.5468 107.505 21.3352V20.2204C107.505 19.8153 107.49 19.4853 107.475 19.168V19.1679V19.1679V19.1679V19.1678V19.1678V19.1678V19.1677V19.1677V19.1677V19.1677C107.462 18.8739 107.449 18.591 107.449 18.2695C107.417 18.0103 107.403 17.7322 107.386 17.3915C107.374 17.1462 107.361 16.8683 107.338 16.5416V16.3743L107.505 16.4858C108.062 16.7645 108.62 16.9317 109.177 16.9317C111.128 16.9317 112.689 15.4825 112.689 13.7546C112.745 11.9709 111.184 10.5217 109.233 10.5217ZM107.282 13.6986C107.282 14.6462 107.784 15.6495 109.233 15.6495C110.125 15.6495 110.85 14.7577 110.85 13.6986C110.85 12.6396 110.125 11.7477 109.233 11.7477C108.007 11.7477 107.282 12.5281 107.282 13.6986ZM116.926 10.5217C116.257 10.5217 115.533 10.7446 114.975 11.1348L114.808 11.2463L114.752 11.0791C114.697 10.8561 114.697 10.6889 114.697 10.6889C114.641 10.5774 114.306 10.5217 114.083 10.5217C113.916 10.5217 113.582 10.5774 113.526 10.6889C113.47 10.9118 113.191 13.4201 113.191 17.9351V17.9908C113.247 18.0465 113.247 18.1023 113.247 18.3252C113.303 20.5548 113.47 22.7287 113.582 23.0074C113.693 23.1189 114.306 23.3976 114.474 23.3976H114.529C114.864 23.3976 115.143 23.1746 115.143 23.0631C115.143 23.054 115.144 23.0405 115.146 23.0178L115.147 23.0176L115.147 23.0176C115.159 22.9013 115.198 22.5468 115.198 21.3352V20.2204C115.198 19.8152 115.183 19.4852 115.169 19.1679V19.1679V19.1678V19.1678V19.1678V19.1677V19.1677C115.155 18.8739 115.143 18.591 115.143 18.2695C115.111 18.0162 115.097 17.7448 115.081 17.4248V17.4248V17.4248V17.4248C115.069 17.1816 115.055 16.9102 115.031 16.5973V16.4301L115.198 16.5416C115.756 16.8203 116.313 16.9875 116.871 16.9875C118.822 16.9875 120.383 15.5382 120.383 13.8103C120.438 11.9709 118.878 10.5217 116.926 10.5217ZM114.975 13.6986C114.975 14.6462 115.477 15.6495 116.926 15.6495C117.819 15.6495 118.543 14.7577 118.543 13.6986C118.543 12.6396 117.819 11.7477 116.926 11.7477C115.7 11.7477 114.975 12.5281 114.975 13.6986ZM134.933 12.9184C134.933 12.9184 134.877 12.9741 134.877 13.0298C134.375 14.0332 133.316 15.7054 132.535 15.7054C132.312 15.7054 132.201 15.5381 132.201 15.3152C132.201 15.0365 132.424 14.4791 132.703 13.8659C132.767 13.6899 132.84 13.5092 132.912 13.3318C133.09 12.8916 133.261 12.4719 133.261 12.1937C133.261 11.5249 132.814 11.1904 132.034 11.1904C131.978 11.1904 130.306 11.1904 129.804 10.856L129.748 10.8003V10.7445C129.748 10.3543 129.637 9.35101 128.8 9.35101C128.354 9.35101 128.076 10.0199 128.076 10.3543C128.076 11.2462 128.522 11.6364 128.745 11.7478L128.8 11.8036L128.856 11.8593L128.8 11.9151C128.635 12.5342 128.317 13.0922 128.073 13.5212C127.987 13.6715 127.911 13.806 127.853 13.9217C127.072 15.0365 126.125 15.5381 124.842 15.5381C123.895 15.5381 123.17 15.0365 122.947 14.2004L122.891 13.9774L123.059 14.0332C123.56 14.2004 124.006 14.2561 124.452 14.2561C125.679 14.2561 126.961 13.643 126.961 12.3052C126.961 11.1904 125.902 10.3543 124.452 10.3543C122.557 10.3543 120.996 11.8036 120.996 13.5315C120.996 14.8135 121.999 16.7087 124.786 16.7087C127.017 16.7087 128.131 14.702 128.466 14.0889L128.522 14.0332C128.912 13.3643 129.247 12.5282 129.358 12.1937L129.414 12.0823L129.525 12.138C129.693 12.1937 130.473 12.361 130.975 12.361C131.198 12.361 131.365 12.4724 131.365 12.6954C131.365 12.7233 131.351 12.7511 131.337 12.779C131.323 12.8069 131.309 12.8348 131.309 12.8626L131.253 12.9184L131.142 13.0856C130.863 13.6987 130.473 14.5906 130.473 15.2037C130.473 15.9841 130.975 16.7644 132.09 16.7644C133.559 16.7644 134.485 15.0356 134.868 14.3214L134.868 14.3212C134.892 14.2768 134.913 14.2363 134.933 14.2004L134.989 14.1446C135.044 13.9774 135.1 13.7545 135.1 13.4758C135.086 13.42 135.072 13.3573 135.058 13.2946C135.016 13.1065 134.975 12.9184 134.933 12.9184ZM124.452 11.7477C123.728 11.7477 123.003 12.5281 122.891 13.4756L122.836 13.5314L122.947 13.5871C123.114 13.6429 123.393 13.6986 123.728 13.6986C124.564 13.6986 125.567 13.4199 125.567 12.6953C125.567 12.0822 125.121 11.7477 124.452 11.7477Z" fill="#505050"/>
<path d="M16.0254 17H17.7949V14.334H19.5117C21.293 14.334 22.4824 13.1855 22.4824 11.4453V11.4336C22.4824 9.69336 21.293 8.54492 19.5117 8.54492H16.0254V17ZM19.0781 9.94531C20.0918 9.94531 20.6895 10.4785 20.6895 11.4395V11.4512C20.6895 12.4121 20.0918 12.9512 19.0781 12.9512H17.7949V9.94531H19.0781ZM26.6309 17.1348C28.6172 17.1348 29.8125 15.8809 29.8125 13.7773V13.7656C29.8125 11.6797 28.5996 10.4082 26.6309 10.4082C24.6621 10.4082 23.4492 11.6855 23.4492 13.7656V13.7773C23.4492 15.875 24.6445 17.1348 26.6309 17.1348ZM26.6309 15.793C25.7168 15.793 25.2012 15.0488 25.2012 13.7773V13.7656C25.2012 12.5059 25.7227 11.75 26.6309 11.75C27.5332 11.75 28.0605 12.5059 28.0605 13.7656V13.7773C28.0605 15.0488 27.5391 15.793 26.6309 15.793ZM32.1621 17H33.9551L35.0977 12.5H35.2031L36.3574 17H38.1738L39.8906 10.5488H38.1973L37.2363 15.2188H37.1309L35.9941 10.5488H34.3652L33.2344 15.2188H33.1289L32.168 10.5488H30.4395L32.1621 17ZM43.6758 17.1348C45.5625 17.1348 46.3945 16.0449 46.5938 15.2363L46.6055 15.1777H45.0117L44.9941 15.2129C44.877 15.459 44.4609 15.8574 43.7109 15.8574C42.8027 15.8574 42.2344 15.2422 42.2168 14.1816H46.6582V13.6484C46.6582 11.6973 45.4863 10.4082 43.6055 10.4082C41.7246 10.4082 40.5234 11.7266 40.5234 13.7773V13.7832C40.5234 15.8516 41.7129 17.1348 43.6758 17.1348ZM43.6348 11.6914C44.3789 11.6914 44.9121 12.1719 45.0176 13.1094H42.2344C42.3398 12.1953 42.8906 11.6914 43.6348 11.6914ZM48.0586 17H49.7695V13.3906C49.7695 12.4766 50.3848 11.9199 51.3574 11.9199C51.6211 11.9199 51.8848 11.9609 52.1426 12.0195V10.5254C51.9727 10.4785 51.7324 10.4434 51.5039 10.4434C50.666 10.4434 50.0801 10.8535 49.875 11.5508H49.7695V10.5488H48.0586V17ZM55.9688 17.1348C57.8555 17.1348 58.6875 16.0449 58.8867 15.2363L58.8984 15.1777H57.3047L57.2871 15.2129C57.1699 15.459 56.7539 15.8574 56.0039 15.8574C55.0957 15.8574 54.5273 15.2422 54.5098 14.1816H58.9512V13.6484C58.9512 11.6973 57.7793 10.4082 55.8984 10.4082C54.0176 10.4082 52.8164 11.7266 52.8164 13.7773V13.7832C52.8164 15.8516 54.0059 17.1348 55.9688 17.1348ZM55.9277 11.6914C56.6719 11.6914 57.2051 12.1719 57.3105 13.1094H54.5273C54.6328 12.1953 55.1836 11.6914 55.9277 11.6914ZM62.6543 17.0996C63.5625 17.0996 64.248 16.6953 64.582 15.998H64.6875V17H66.3984V8.08203H64.6875V11.5801H64.582C64.2598 10.877 63.5391 10.4434 62.6543 10.4434C61.0195 10.4434 60.0352 11.6914 60.0352 13.7656V13.7773C60.0352 15.8398 61.043 17.0996 62.6543 17.0996ZM63.2344 15.6816C62.332 15.6816 61.7754 14.9668 61.7754 13.7773V13.7656C61.7754 12.5879 62.332 11.8613 63.2344 11.8613C64.1367 11.8613 64.7051 12.5879 64.7051 13.7715V13.7832C64.7051 14.9668 64.1426 15.6816 63.2344 15.6816ZM75.0703 17.0996C76.6816 17.0996 77.6895 15.8398 77.6895 13.7773V13.7656C77.6895 11.6914 76.7051 10.4434 75.0703 10.4434C74.1855 10.4434 73.4648 10.877 73.1367 11.5801H73.0312V8.08203H71.3203V17H73.0312V15.998H73.1367C73.4707 16.6953 74.1562 17.0996 75.0703 17.0996ZM74.4844 15.6816C73.582 15.6816 73.0137 14.9668 73.0137 13.7832V13.7715C73.0137 12.5879 73.5879 11.8613 74.4844 11.8613C75.3867 11.8613 75.9492 12.5879 75.9492 13.7656V13.7773C75.9492 14.9668 75.3926 15.6816 74.4844 15.6816ZM79.5762 19.2734C81.1699 19.2734 82.0195 18.6992 82.5938 16.9941L84.791 10.5488H82.9863L81.6328 15.4355H81.5156L80.1621 10.5488H78.2812L80.5488 17L80.4902 17.2461C80.3672 17.75 80.0156 17.9844 79.4062 17.9844C79.248 17.9844 79.0781 17.9785 78.9609 17.9668V19.2559C79.1602 19.2676 79.377 19.2734 79.5762 19.2734Z" fill="#505050"/>
</svg>
