<svg width="111" height="20" viewBox="0 0 111 20" fill="none" xmlns="http://www.w3.org/2000/svg">
<path fill-rule="evenodd" clip-rule="evenodd" d="M73.1392 9.69875C73.1392 7.97081 74.7001 6.52157 76.5956 6.52157C78.491 6.52157 80.052 7.97081 80.2749 9.64301C80.2749 11.3709 78.714 12.8202 76.7628 12.8202C75.7594 12.8202 74.8116 12.3743 74.1427 11.7054L74.0311 11.5939L73.9197 11.7054C73.3064 12.43 72.6375 12.8202 71.9685 12.8202C70.1425 12.8202 70.074 11.1728 70.0186 9.84017L70.0173 9.81023C70.0131 9.74764 70.0093 9.68568 70.0055 9.6246L70.0055 9.62448C69.9584 8.86964 69.9198 8.24951 69.4041 8.24951C68.4006 8.24951 67.2299 10.9808 66.6167 12.5972L66.5609 12.7087C66.5052 12.8202 66.1707 12.8759 65.9477 12.8759C65.7247 12.8759 65.446 12.8202 65.3902 12.7087V12.653C65.3345 12.3743 65 10.2004 65 5.07233C65 2.89848 65.1115 0.613139 65.223 0.390179C65.3345 0.2787 65.9477 0 66.115 0C66.3937 0 66.7282 0.22296 66.784 0.33444C66.8397 0.557399 66.8954 1.50498 66.8954 3.17718C66.8954 5.01659 66.8397 6.85601 66.7282 8.80691L66.6167 10.7021L66.8954 10.1447C67.6202 8.47247 68.7909 6.52157 70.2961 6.52157C71.5217 6.52157 71.5758 7.99865 71.6268 9.39478L71.634 9.58727C71.634 10.7578 71.634 11.7054 72.303 11.7054C72.6375 11.7054 72.9719 11.4267 73.3622 10.9808L73.418 10.925L73.3622 10.8693C73.2507 10.4791 73.1392 10.0889 73.1392 9.69875ZM75.0343 9.69861C75.0343 10.7577 75.7033 11.6495 76.5953 11.6495C77.4872 11.6495 78.212 10.7577 78.212 9.69861C78.212 8.63955 77.4872 7.74771 76.5953 7.74771C75.7591 7.74771 75.0343 8.63955 75.0343 9.69861ZM84.233 6.52165C83.564 6.52165 82.8393 6.74461 82.2818 7.13479L82.1146 7.24627L82.0589 7.07905C82.0031 6.85609 82.0031 6.68887 82.0031 6.68887C81.9473 6.57739 81.6129 6.52165 81.3899 6.52165C81.2226 6.52165 80.8882 6.57739 80.8324 6.68887C80.7766 6.91183 80.4979 9.42013 80.4979 13.9351V13.9908C80.5537 14.0465 80.5537 14.1023 80.5537 14.3252C80.6094 16.5548 80.7766 18.7287 80.8882 19.0074C80.9996 19.1189 81.6128 19.3976 81.7801 19.3976H81.8358C82.1703 19.3976 82.4491 19.1746 82.4491 19.0631C82.4491 19.054 82.4506 19.0404 82.4531 19.0176C82.4659 18.9013 82.5048 18.5468 82.5048 17.3352V16.2204C82.5048 15.8153 82.4898 15.4853 82.4754 15.168V15.1679V15.1679V15.1679V15.1678V15.1678V15.1678V15.1677V15.1677V15.1677V15.1677C82.462 14.8739 82.4491 14.591 82.4491 14.2695C82.4167 14.0103 82.4031 13.7322 82.3865 13.3915C82.3745 13.1462 82.3609 12.8683 82.3376 12.5416V12.3743L82.5048 12.4858C83.0623 12.7645 83.6198 12.9317 84.1773 12.9317C86.1284 12.9317 87.6894 11.4825 87.6894 9.75457C87.7451 7.97089 86.1842 6.52165 84.233 6.52165ZM82.2819 9.69861C82.2819 10.6462 82.7836 11.6495 84.233 11.6495C85.125 11.6495 85.8497 10.7577 85.8497 9.69861C85.8497 8.63955 85.125 7.74771 84.233 7.74771C83.0066 7.74771 82.2819 8.52807 82.2819 9.69861ZM91.9265 6.52165C91.2575 6.52165 90.5328 6.74461 89.9753 7.13479L89.808 7.24627L89.7523 7.07905C89.6965 6.85609 89.6965 6.68887 89.6965 6.68887C89.6408 6.57739 89.3063 6.52165 89.0834 6.52165C88.9161 6.52165 88.5816 6.57739 88.5258 6.68887C88.4701 6.91183 88.1913 9.42013 88.1913 13.9351V13.9908C88.2471 14.0465 88.2471 14.1023 88.2471 14.3252C88.3029 16.5548 88.4701 18.7287 88.5816 19.0074C88.6931 19.1189 89.3063 19.3976 89.4736 19.3976H89.5293C89.8638 19.3976 90.1425 19.1746 90.1425 19.0631C90.1425 19.054 90.144 19.0405 90.1465 19.0178L90.1465 19.0176L90.1465 19.0176C90.1593 18.9013 90.1983 18.5468 90.1983 17.3352V16.2204C90.1983 15.8152 90.1832 15.4852 90.1688 15.1679V15.1679V15.1678V15.1678V15.1678V15.1677V15.1677C90.1554 14.8739 90.1425 14.591 90.1425 14.2695C90.1109 14.0162 90.0972 13.7448 90.081 13.4248V13.4248V13.4248V13.4248C90.0688 13.1816 90.0551 12.9102 90.031 12.5973V12.4301L90.1983 12.5416C90.7558 12.8203 91.3132 12.9875 91.8707 12.9875C93.822 12.9875 95.3827 11.5382 95.3827 9.81031C95.4384 7.97089 93.8777 6.52165 91.9265 6.52165ZM89.9752 9.69861C89.9752 10.6462 90.4769 11.6495 91.9263 11.6495C92.8185 11.6495 93.5431 10.7577 93.5431 9.69861C93.5431 8.63955 92.8185 7.74771 91.9263 7.74771C90.6999 7.74771 89.9752 8.52807 89.9752 9.69861ZM109.933 8.91837C109.933 8.91837 109.877 8.97411 109.877 9.02985C109.375 10.0332 108.316 11.7054 107.535 11.7054C107.312 11.7054 107.201 11.5381 107.201 11.3152C107.201 11.0365 107.424 10.4791 107.703 9.86595C107.767 9.68986 107.84 9.50917 107.912 9.3318C108.09 8.8916 108.261 8.47187 108.261 8.19375C108.261 7.52487 107.814 7.19043 107.034 7.19043C106.978 7.19043 105.306 7.19043 104.804 6.85599L104.748 6.80025V6.74451C104.748 6.35433 104.637 5.35101 103.8 5.35101C103.354 5.35101 103.076 6.01989 103.076 6.35433C103.076 7.24617 103.522 7.63635 103.745 7.74783L103.8 7.80357L103.856 7.85931L103.8 7.91505C103.635 8.53421 103.317 9.09224 103.073 9.52123C102.987 9.67153 102.911 9.80599 102.853 9.92169C102.072 11.0365 101.125 11.5381 99.8422 11.5381C98.8946 11.5381 98.17 11.0365 97.9471 10.2004L97.8913 9.97743L98.0585 10.0332C98.5602 10.2004 99.0061 10.2561 99.452 10.2561C100.679 10.2561 101.961 9.64299 101.961 8.30523C101.961 7.19043 100.902 6.35433 99.452 6.35433C97.5569 6.35433 95.9956 7.80357 95.9956 9.53151C95.9956 10.8135 96.9995 12.7087 99.7865 12.7087C102.017 12.7087 103.131 10.702 103.466 10.0889L103.522 10.0332C103.912 9.36429 104.247 8.52819 104.358 8.19375L104.414 8.08227L104.525 8.13801C104.693 8.19375 105.473 8.36097 105.975 8.36097C106.198 8.36097 106.365 8.47245 106.365 8.69541C106.365 8.72328 106.351 8.75115 106.337 8.77902C106.323 8.80689 106.309 8.83476 106.309 8.86263L106.253 8.91837L106.142 9.08559C105.863 9.69873 105.473 10.5906 105.473 11.2037C105.473 11.9841 105.975 12.7644 107.09 12.7644C108.559 12.7644 109.485 11.0356 109.868 10.3214L109.868 10.3212C109.892 10.2768 109.913 10.2363 109.933 10.2004L109.989 10.1446C110.044 9.97743 110.1 9.75447 110.1 9.47577C110.086 9.42003 110.072 9.35732 110.058 9.29461C110.016 9.10649 109.975 8.91837 109.933 8.91837ZM99.4521 7.74771C98.7275 7.74771 98.0029 8.52807 97.8914 9.47565L97.8357 9.53139L97.9471 9.58713C98.1144 9.64287 98.3931 9.69861 98.7275 9.69861C99.5636 9.69861 100.567 9.41991 100.567 8.69529C100.567 8.08215 100.121 7.74771 99.4521 7.74771Z" fill="#505050"/>
<path d="M1.02539 13H2.79492V9.67188H6.23438V8.27148H2.79492V6.00391H6.5625V4.54492H1.02539V13ZM10.8926 13.1348C12.8789 13.1348 14.0742 11.8809 14.0742 9.77734V9.76562C14.0742 7.67969 12.8613 6.4082 10.8926 6.4082C8.92383 6.4082 7.71094 7.68555 7.71094 9.76562V9.77734C7.71094 11.875 8.90625 13.1348 10.8926 13.1348ZM10.8926 11.793C9.97852 11.793 9.46289 11.0488 9.46289 9.77734V9.76562C9.46289 8.50586 9.98438 7.75 10.8926 7.75C11.7949 7.75 12.3223 8.50586 12.3223 9.76562V9.77734C12.3223 11.0488 11.8008 11.793 10.8926 11.793ZM17.6016 13.1348C18.5215 13.1348 19.1777 12.707 19.4707 12.0039H19.5762V13H21.2871V6.54883H19.5762V10.2754C19.5762 11.1484 19.1191 11.7168 18.2754 11.7168C17.4668 11.7168 17.1211 11.2422 17.1211 10.3281V6.54883H15.4102V10.7207C15.4102 12.2559 16.1543 13.1348 17.6016 13.1348ZM23.0039 13H24.7148V9.39062C24.7148 8.47656 25.3301 7.91992 26.3027 7.91992C26.5664 7.91992 26.8301 7.96094 27.0879 8.01953V6.52539C26.918 6.47852 26.6777 6.44336 26.4492 6.44336C25.6113 6.44336 25.0254 6.85352 24.8203 7.55078H24.7148V6.54883H23.0039V13ZM28.2891 13H30V9.26758C30 8.39453 30.4805 7.82617 31.2715 7.82617C32.0801 7.82617 32.4551 8.30664 32.4551 9.21484V13H34.166V8.82812C34.166 7.28711 33.3926 6.4082 31.957 6.4082C31.0371 6.4082 30.3984 6.84766 30.1055 7.54492H30V6.54883H28.2891V13ZM36.6973 5.55859C37.2246 5.55859 37.6582 5.13672 37.6582 4.60938C37.6582 4.07617 37.2246 3.6543 36.6973 3.6543C36.1699 3.6543 35.7305 4.07617 35.7305 4.60938C35.7305 5.13672 36.1699 5.55859 36.6973 5.55859ZM35.8359 13H37.5469V6.54883H35.8359V13ZM42.3633 15.1387H44.0742V11.9688H44.1797C44.5078 12.6719 45.2285 13.0996 46.1133 13.0996C47.748 13.0996 48.7324 11.8516 48.7324 9.77734V9.76562C48.7324 7.70898 47.7246 6.44336 46.1133 6.44336C45.1992 6.44336 44.5137 6.85352 44.1797 7.54492H44.0742V6.54883H42.3633V15.1387ZM45.5273 11.6816C44.6309 11.6816 44.0566 10.9609 44.0566 9.77734V9.76562C44.0566 8.58203 44.625 7.86133 45.5273 7.86133C46.4355 7.86133 46.9922 8.58203 46.9922 9.76562V9.77734C46.9922 10.9609 46.4297 11.6816 45.5273 11.6816ZM51.8906 13.0996C52.7344 13.0996 53.4141 12.7422 53.7422 12.1445H53.8477V13H55.5352V8.59375C55.5352 7.2168 54.5684 6.4082 52.8574 6.4082C51.2344 6.4082 50.168 7.1582 50.0332 8.28906L50.0273 8.3418H51.6094L51.6211 8.31836C51.7559 7.9375 52.1484 7.7207 52.7637 7.7207C53.4668 7.7207 53.8477 8.03711 53.8477 8.59375V9.12695L52.2891 9.2207C50.6836 9.31445 49.7871 9.99414 49.7871 11.1543V11.166C49.7871 12.3379 50.6602 13.0996 51.8906 13.0996ZM51.457 11.0605V11.0488C51.457 10.5801 51.8145 10.3047 52.5469 10.2578L53.8477 10.1758V10.6504C53.8477 11.3301 53.2559 11.8516 52.4648 11.8516C51.873 11.8516 51.457 11.5527 51.457 11.0605ZM57.2109 13H58.9219V9.39062C58.9219 8.47656 59.5371 7.91992 60.5098 7.91992C60.7734 7.91992 61.0371 7.96094 61.2949 8.01953V6.52539C61.125 6.47852 60.8848 6.44336 60.6562 6.44336C59.8184 6.44336 59.2324 6.85352 59.0273 7.55078H58.9219V6.54883H57.2109V13Z" fill="#505050"/>
</svg>
