<svg width="113" height="26" viewBox="0 0 113 26" fill="none" xmlns="http://www.w3.org/2000/svg">
<rect width="113" height="26" rx="8" fill="white"/>
<path opacity="0.8" d="M13.92 12.56H22.02V13.976H13.92V12.56ZM13.92 16.016H22.008V17.444H13.92V16.016ZM13.2 9.09197H22.836V18.068H21.324V10.544H14.64V18.092H13.2V9.09197ZM17.196 6.82397H18.672V16.772H17.196V6.82397Z" fill="#7B8AA7"/>
<g clip-path="url(#clip0_381_1585)">
<path d="M66.2999 17.2424C64.4777 17.2424 63.2221 16.7227 62.311 15.9379L63.6666 14.0924C64.311 14.6864 65.2777 15.153 66.4333 15.153C66.9221 15.153 67.3888 15.0257 67.3888 14.7076C67.3888 13.9227 62.5999 14.7182 62.5999 11.4833C62.5999 10.0939 63.811 8.75757 66.1666 8.75757C67.5666 8.75757 68.8333 9.13939 69.811 9.90302L68.4221 11.6636C67.6777 11.1227 66.711 10.847 65.8999 10.847C65.3888 10.847 65.2444 11.0061 65.2444 11.2182C65.2444 11.9924 70.0221 11.3242 70.0221 14.3788C69.9999 16.1924 68.5999 17.2424 66.2999 17.2424Z" fill="#2F394E"/>
<path d="M59.8775 17.0939H57.2775V11.0484H54.9775V8.88477H62.1664V11.0484H59.8775V17.0939Z" fill="#2F394E"/>
<path d="M54.0445 17.0939H51.4445V13.9545H48.3667V17.0939H45.7778V8.88477H48.3778V11.7908H51.4556V8.88477H54.0556V17.0939H54.0445Z" fill="#2F394E"/>
<path d="M38.4444 6L30 10.6348V17.0303L38.4444 12.5545V6Z" fill="url(#paint0_linear_381_1585)"/>
<path opacity="0.06" d="M30 10.6348L38.4444 6V6.22273L30.2222 10.7409V16.9136L30 17.0303V10.6348Z" fill="white"/>
<path d="M40.6666 7.48486L32.2222 12.1197V18.5152L40.6666 14.0394V7.48486Z" fill="url(#paint1_linear_381_1585)"/>
<mask id="mask0_381_1585" style="mask-type:alpha" maskUnits="userSpaceOnUse" x="32" y="7" width="9" height="12">
<path d="M40.6666 7.48486L32.2222 12.1197V18.5152L40.6666 14.0394V7.48486Z" fill="black"/>
</mask>
<g mask="url(#mask0_381_1585)">
<path d="M38.4444 6L29.9999 10.6348V17.0303L38.4444 12.5545V6Z" fill="url(#paint2_radial_381_1585)"/>
</g>
<path opacity="0.12" d="M32.2222 12.1197L40.6666 7.48486V7.70759L32.4444 12.2258V18.3985L32.2222 18.5152V12.1197Z" fill="white"/>
<path d="M42.8888 8.96973L34.4443 13.6046V20L42.8888 15.5243V8.96973Z" fill="url(#paint3_linear_381_1585)"/>
<mask id="mask1_381_1585" style="mask-type:alpha" maskUnits="userSpaceOnUse" x="34" y="8" width="9" height="12">
<path d="M42.8888 8.96973L34.4443 13.6046V20L42.8888 15.5243V8.96973Z" fill="black"/>
</mask>
<g mask="url(#mask1_381_1585)">
<path d="M40.6666 7.48486L32.2221 12.1197V18.5152L40.6666 14.0394V7.48486Z" fill="url(#paint4_radial_381_1585)"/>
</g>
<mask id="mask2_381_1585" style="mask-type:alpha" maskUnits="userSpaceOnUse" x="34" y="8" width="9" height="12">
<path d="M42.8888 8.96973L34.4443 13.6046V20L42.8888 15.5243V8.96973Z" fill="black"/>
</mask>
<g mask="url(#mask2_381_1585)">
<path d="M38.4443 6L29.9999 10.6348V17.0303L38.4443 12.5545V6Z" fill="url(#paint5_linear_381_1585)" fill-opacity="0.06"/>
</g>
<path opacity="0.06" d="M34.4443 13.6046L42.8888 8.96973V9.19245L34.6666 13.7106V19.8834L34.4443 20V13.6046Z" fill="white"/>
</g>
<g opacity="0.8">
<path d="M82.604 10.728V11.316H85.856V10.728H82.604ZM82.604 9.20397V9.80397H85.856V9.20397H82.604ZM81.284 8.18397H87.236V12.348H81.284V8.18397ZM80.696 12.9H87.848V14.064H80.696V12.9ZM83.54 13.536H84.896V18.42L83.54 17.832V13.536ZM82.436 15.66C83.036 17.448 84.26 17.676 85.736 17.676C86.144 17.676 87.644 17.676 88.172 17.652C87.992 17.952 87.824 18.552 87.776 18.924H85.676C83.732 18.924 82.34 18.492 81.572 15.948L82.436 15.66ZM84.524 15.12H87.2V16.248H84.524V15.12ZM81.416 14.424L82.712 14.58C82.46 16.536 81.848 18.084 80.792 19.056C80.576 18.828 80.036 18.396 79.736 18.204C80.732 17.4 81.236 16.068 81.416 14.424ZM76.664 13.896C77.648 13.692 79.1 13.296 80.48 12.912L80.672 14.208C79.412 14.592 78.056 14.988 76.976 15.288L76.664 13.896ZM76.784 10.092H80.6V11.412H76.784V10.092ZM78.08 7.82397H79.4V17.4C79.4 18.06 79.292 18.432 78.92 18.648C78.56 18.876 78.032 18.924 77.264 18.924C77.228 18.564 77.06 17.976 76.892 17.592C77.324 17.604 77.744 17.604 77.888 17.604C78.032 17.604 78.08 17.556 78.08 17.388V7.82397Z" fill="#7B8AA7"/>
<path d="M91.504 7.82397L92.86 8.25597C92.092 10.296 90.844 12.456 89.536 13.836C89.404 13.488 89.008 12.696 88.768 12.336C89.848 11.256 90.892 9.53997 91.504 7.82397ZM90.292 11.172L91.708 9.76797V9.77997V19.068H90.292V11.172ZM92.68 10.152H100.108V11.532H92.68V10.152ZM92.392 13.932H100.216V15.336H92.392V13.932ZM94.012 7.90797H95.416V14.652H94.012V7.90797ZM97.144 7.88397H98.56V14.676H97.144V7.88397ZM94.324 15.816L95.68 16.248C95.08 17.292 94.108 18.36 93.268 19.032C93.004 18.78 92.464 18.324 92.14 18.132C92.992 17.568 93.832 16.68 94.324 15.816ZM96.964 16.452L98.104 15.816C98.884 16.572 99.724 17.592 100.144 18.3L98.932 19.056C98.56 18.336 97.708 17.244 96.964 16.452Z" fill="#7B8AA7"/>
</g>
<defs>
<linearGradient id="paint0_linear_381_1585" x1="38.4916" y1="6.03297" x2="30.5377" y2="17.4063" gradientUnits="userSpaceOnUse">
<stop stop-color="#E04846"/>
<stop offset="1" stop-color="#FA6866"/>
</linearGradient>
<linearGradient id="paint1_linear_381_1585" x1="40.7138" y1="7.51784" x2="32.7599" y2="18.8912" gradientUnits="userSpaceOnUse">
<stop stop-color="#F4D52F"/>
<stop offset="1" stop-color="#FAC624"/>
</linearGradient>
<radialGradient id="paint2_radial_381_1585" cx="0" cy="0" r="1" gradientUnits="userSpaceOnUse" gradientTransform="translate(33.1678 10.9301) rotate(15.682) scale(4.90479 3.88408)">
<stop offset="0.224" stop-color="#FDCC28"/>
<stop offset="1" stop-color="#FEAF14"/>
</radialGradient>
<linearGradient id="paint3_linear_381_1585" x1="42.9358" y1="9.00269" x2="34.9819" y2="20.3761" gradientUnits="userSpaceOnUse">
<stop stop-color="#01AAE4"/>
<stop offset="1" stop-color="#0D88AE"/>
</linearGradient>
<radialGradient id="paint4_radial_381_1585" cx="0" cy="0" r="1" gradientUnits="userSpaceOnUse" gradientTransform="translate(39.4443 14.3276) rotate(-157.177) scale(5.60551 4.47313)">
<stop stop-color="#0AC9C9"/>
<stop offset="1" stop-color="#0BA5C3"/>
</radialGradient>
<linearGradient id="paint5_linear_381_1585" x1="38.4915" y1="6.03297" x2="30.5376" y2="17.4063" gradientUnits="userSpaceOnUse">
<stop stop-color="#E04846"/>
<stop offset="1" stop-color="#FA6866"/>
</linearGradient>
<clipPath id="clip0_381_1585">
<rect width="40" height="14" fill="white" transform="translate(30 6)"/>
</clipPath>
</defs>
</svg>
