<svg width="28" height="28" viewBox="0 0 28 28" fill="none" xmlns="http://www.w3.org/2000/svg">
<path d="M20.3092 23.3914C20.1992 23.3913 20.0904 23.4135 19.9894 23.4568C19.8884 23.5002 19.7973 23.5637 19.7216 23.6434C18.8694 24.5456 17.8153 25.2326 16.6459 25.6481C15.4805 26.058 14.2332 26.1794 13.0107 26.0019C11.7882 25.8245 10.6269 25.3533 9.6262 24.6289H9.95357C10.1684 24.6283 10.3741 24.5425 10.5258 24.3903C10.6774 24.2382 10.7626 24.0322 10.7626 23.8174C10.7626 23.6026 10.6774 23.3966 10.5258 23.2445C10.3741 23.0923 10.1684 23.0065 9.95357 23.0059H7.65262C7.43742 23.0059 7.23105 23.0914 7.0789 23.2436C6.92676 23.3958 6.84129 23.6022 6.84131 23.8174V26.1304C6.84131 26.3455 6.92679 26.5519 7.07894 26.7041C7.2311 26.8562 7.43746 26.9417 7.65264 26.9417C7.86782 26.9417 8.07419 26.8562 8.22634 26.7041C8.3785 26.5519 8.46398 26.3455 8.46398 26.1304V25.8018C9.68915 26.7388 11.1287 27.3553 12.6523 27.5956C14.1759 27.8358 15.7353 27.6922 17.1894 27.1777C18.5988 26.6772 19.8694 25.8495 20.8966 24.7625C21.0061 24.6475 21.0795 24.5029 21.1076 24.3467C21.1357 24.1904 21.1174 24.0293 21.0548 23.8833C20.9923 23.7374 20.8883 23.613 20.7558 23.5255C20.6232 23.4381 20.4679 23.3915 20.3092 23.3914Z" fill="#005078"/>
<path d="M22.2999 7.22559H20.4071C19.8063 7.22745 19.2278 7.45315 18.7845 7.85862C18.3412 7.45315 17.7626 7.22745 17.1619 7.22559H5.46204C4.60164 7.22656 3.77677 7.56879 3.16838 8.17717C2.56 8.78556 2.21777 9.61043 2.2168 10.4708L2.2168 17.5293C2.2178 18.3897 2.56003 19.2145 3.16841 19.8229C3.7768 20.4313 4.60166 20.7735 5.46204 20.7745H17.1619C17.7626 20.7726 18.3412 20.5469 18.7845 20.1414C19.2278 20.5469 19.8063 20.7726 20.4071 20.7745H22.4995C23.3599 20.7735 24.1848 20.4313 24.7932 19.8229C25.4016 19.2145 25.7438 18.3897 25.7448 17.5293V10.6705C25.7438 9.75715 25.3805 8.88153 24.7347 8.2357C24.0888 7.58988 23.2132 7.22661 22.2999 7.22559ZM13.7239 15.0373H12.2621L10.6994 17.5668C10.6403 17.6541 10.5609 17.7259 10.468 17.7758C10.3752 17.8258 10.2716 17.8526 10.1661 17.8537H10.0182C9.91526 17.8536 9.81385 17.8287 9.72254 17.7812C9.63124 17.7336 9.55274 17.6647 9.49367 17.5804C9.43405 17.4952 9.39581 17.3969 9.38218 17.2938C9.36855 17.1908 9.37994 17.0859 9.41538 16.9882L10.0185 15.0373H8.58134L8.21887 15.519C8.16063 15.6034 8.08257 15.6723 7.99153 15.7195C7.90049 15.7668 7.79925 15.791 7.69669 15.79C7.59835 15.7913 7.501 15.7701 7.41213 15.7279C7.32326 15.6858 7.24523 15.6239 7.184 15.5469C7.12278 15.4699 7.08001 15.3799 7.05896 15.2839C7.03791 15.1878 7.03914 15.0882 7.06256 14.9926L7.30273 14L7.06258 13.0074C7.03921 12.9122 7.0379 12.8129 7.05873 12.7171C7.07957 12.6213 7.122 12.5315 7.18281 12.4546C7.24916 12.3784 7.33185 12.3182 7.42471 12.2784C7.51756 12.2386 7.6182 12.2203 7.71913 12.2247C7.82006 12.2292 7.91868 12.2564 8.00765 12.3043C8.09662 12.3521 8.17364 12.4195 8.23299 12.5012L8.58136 12.9632H10.0182L9.40993 10.9954C9.37742 10.8987 9.36834 10.7957 9.38344 10.6948C9.39854 10.5939 9.43739 10.4981 9.4968 10.4152C9.5562 10.3323 9.63445 10.2647 9.7251 10.2179C9.81575 10.1712 9.91622 10.1466 10.0182 10.1463H10.1661C10.268 10.1457 10.3686 10.1693 10.4597 10.2151C10.5507 10.2609 10.6297 10.3276 10.69 10.4097L12.2623 12.9632H13.7239C13.9973 12.9657 14.2586 13.0761 14.451 13.2703C14.6435 13.4645 14.7514 13.7268 14.7514 14.0002C14.7514 14.2736 14.6435 14.5359 14.451 14.7302C14.2586 14.9244 13.9973 15.0347 13.7239 15.0373ZM19.5951 12.4991C19.5951 12.7143 19.5096 12.9206 19.3574 13.0728C19.2053 13.2249 18.9989 13.3104 18.7837 13.3104C18.5686 13.3104 18.3622 13.2249 18.2101 13.0728C18.0579 12.9206 17.9724 12.7143 17.9724 12.4991V10.4708C17.9724 10.2557 18.0579 10.0493 18.2101 9.89714C18.3622 9.74499 18.5686 9.65952 18.7837 9.65952C18.9989 9.65952 19.2053 9.74499 19.3574 9.89714C19.5096 10.0493 19.5951 10.2557 19.5951 10.4708V12.4991ZM19.5951 17.5292C19.5951 17.7444 19.5096 17.9508 19.3574 18.1029C19.2053 18.2551 18.9989 18.3405 18.7837 18.3405C18.5686 18.3405 18.3622 18.2551 18.2101 18.1029C18.0579 17.9508 17.9724 17.7444 17.9724 17.5292V15.5009C17.9724 15.2858 18.0579 15.0794 18.2101 14.9273C18.3622 14.7751 18.5686 14.6896 18.7837 14.6896C18.9989 14.6896 19.2053 14.7751 19.3574 14.9273C19.5096 15.0794 19.5951 15.2858 19.5951 15.5009V17.5292Z" fill="#005078"/>
<path d="M7.65249 4.60896C7.76241 4.60913 7.87122 4.58687 7.97224 4.54354C8.07327 4.5002 8.16439 4.43672 8.24003 4.35696C9.09224 3.45484 10.1464 2.76784 11.3158 2.35243C12.4811 1.94252 13.7284 1.82112 14.951 1.9986C16.1735 2.17608 17.3348 2.64717 18.3355 3.37153H18.0081C17.7934 3.37221 17.5876 3.458 17.436 3.61011C17.2844 3.76222 17.1992 3.96823 17.1992 4.183C17.1992 4.39777 17.2844 4.60378 17.436 4.75589C17.5876 4.90799 17.7934 4.99379 18.0081 4.99447H20.309C20.5242 4.99444 20.7306 4.90893 20.8827 4.75675C21.0349 4.60457 21.1203 4.39819 21.1203 4.18299V1.87021C21.1203 1.65503 21.0348 1.44866 20.8827 1.29651C20.7305 1.14436 20.5241 1.05888 20.309 1.05888C20.0938 1.05888 19.8874 1.14436 19.7353 1.29651C19.5831 1.44866 19.4976 1.65503 19.4976 1.87021V2.19879C18.2724 1.26187 16.8329 0.645384 15.3093 0.405154C13.7857 0.164924 12.2263 0.308543 10.7722 0.823004C9.36286 1.32339 8.09231 2.15106 7.065 3.23798C6.95554 3.35298 6.88222 3.49757 6.85412 3.65383C6.82602 3.81009 6.84437 3.97116 6.90691 4.11709C6.96944 4.26302 7.07341 4.38741 7.20594 4.47484C7.33846 4.56227 7.49372 4.6089 7.65249 4.60896Z" fill="#005078"/>
</svg>
